<svg width="24" height="24" viewBox="0 0 24 24" fill="none" xmlns="http://www.w3.org/2000/svg">
<g clip-path="url(#clip0_101_127)" filter="url(#filter0_dd_101_127)">
<path d="M11.2028 1.38322L9.38889 5.061L5.33055 5.65267C4.60277 5.75822 4.31111 6.65545 4.83889 7.16934L7.775 10.0304L7.08055 14.0721C6.95555 14.8027 7.725 15.3499 8.36944 15.0082L12 13.0999L15.6306 15.0082C16.275 15.3471 17.0444 14.8027 16.9194 14.0721L16.225 10.0304L19.1611 7.16934C19.6889 6.65545 19.3972 5.75822 18.6694 5.65267L14.6111 5.061L12.7972 1.38322C12.4722 0.727669 11.5306 0.719335 11.2028 1.38322Z" fill="#FFB238"/>
</g>
<defs>
<filter id="filter0_dd_101_127" x="0" y="0" width="24" height="24" filterUnits="userSpaceOnUse" color-interpolation-filters="sRGB">
<feFlood flood-opacity="0" result="BackgroundImageFix"/>
<feColorMatrix in="SourceAlpha" type="matrix" values="0 0 0 0 0 0 0 0 0 0 0 0 0 0 0 0 0 0 127 0" result="hardAlpha"/>
<feOffset dy="4"/>
<feGaussianBlur stdDeviation="2"/>
<feComposite in2="hardAlpha" operator="out"/>
<feColorMatrix type="matrix" values="0 0 0 0 0 0 0 0 0 0 0 0 0 0 0 0 0 0 0.25 0"/>
<feBlend mode="normal" in2="BackgroundImageFix" result="effect1_dropShadow_101_127"/>
<feColorMatrix in="SourceAlpha" type="matrix" values="0 0 0 0 0 0 0 0 0 0 0 0 0 0 0 0 0 0 127 0" result="hardAlpha"/>
<feOffset dy="4"/>
<feGaussianBlur stdDeviation="2"/>
<feComposite in2="hardAlpha" operator="out"/>
<feColorMatrix type="matrix" values="0 0 0 0 0 0 0 0 0 0 0 0 0 0 0 0 0 0 0.25 0"/>
<feBlend mode="normal" in2="effect1_dropShadow_101_127" result="effect2_dropShadow_101_127"/>
<feBlend mode="normal" in="SourceGraphic" in2="effect2_dropShadow_101_127" result="shape"/>
</filter>
<clipPath id="clip0_101_127">
<rect width="16" height="16" fill="white" transform="translate(4)"/>
</clipPath>
</defs>
</svg>
